<?xml version="1.0" encoding="utf-8"?>
<!-- Generator: Adobe Illustrator 17.1.0, SVG Export Plug-In . SVG Version: 6.00 Build 0)  -->
<!DOCTYPE svg PUBLIC "-//W3C//DTD SVG 1.1//EN" "http://www.w3.org/Graphics/SVG/1.1/DTD/svg11.dtd">
<svg version="1.1" id="Calque_1" xmlns="http://www.w3.org/2000/svg" xmlns:xlink="http://www.w3.org/1999/xlink" x="0px" y="0px"
	 viewBox="0 0 1190.6 841.9" enable-background="new 0 0 1190.6 841.9" xml:space="preserve">
<g>
	<g>
		<path fill="#2CB3CF" d="M661.8,486.8c1.6,3.1,2.4,6.9,2.4,11.4v14.2h16v6h-39.3v-20.9c0-11.1,3.9-16.7,11.8-16.7
			C656.7,480.8,659.8,482.8,661.8,486.8z M646,497.1v15.3h13.1v-15.4c0-3-0.5-5.4-1.6-7.2c-1.2-2-2.7-3-4.8-3
			C648.2,486.8,646,490.2,646,497.1z"/>
		<path fill="#2CB3CF" d="M680.2,477.6h-29.4v-5.9h29.4V477.6z"/>
		<path fill="#2CB3CF" d="M678.7,440.9c1.4,2.7,2.1,5.9,2.1,9.7c0,5.2-1.3,9.4-3.9,12.6c-2.6,3.1-6.1,4.7-10.4,4.7
			c-4.6,0-8.3-1.6-11.1-4.8c-2.8-3.2-4.2-7.6-4.2-13.2c0-3.4,0.7-6.4,2-8.9c1.5-2.9,4.1-4.9,7.9-6.1l2.3,5.4c-2.8,0.8-4.7,2-5.8,3.4
			c-1.1,1.5-1.6,3.5-1.6,6.2c0,3.8,0.9,6.7,2.8,8.8c1.9,2,4.4,3.1,7.5,3.1c2.9,0,5.2-0.9,6.8-2.8c1.7-2,2.6-4.8,2.6-8.4
			c0-2.5-0.5-4.7-1.5-6.5c-1-1.8-3.1-3.1-6.5-3.9l2.1-5.7C674.2,435.7,677.1,437.8,678.7,440.9z"/>
		<path fill="#2CB3CF" d="M657.6,421.5h22.6v5.8l-22.6,0.1v6.2h-5v-6.2h-7.9v-5.9h7.9v-6.3h5V421.5z"/>
		<path fill="#2CB3CF" d="M680.3,388.8h-2c1.7,2.6,2.5,5.9,2.5,9.7c0,4.2-0.9,7.6-2.7,10.1c-1.9,2.7-4.7,4.1-8.2,4.1h-18v-5.9h18
			c4,0,6-2.7,6-8.2c0-6.5-2.9-9.7-8.8-9.7H652v-5.9h28.4V388.8z"/>
		<path fill="#2CB3CF" d="M659.9,368.8c2.2,1.7,5.1,2.5,8.6,2.5h11.6v5.9h-28.4v-5.9h2.6c-2.1-2.9-3.2-7.3-3.2-13.2h4.9
			C656.2,363.4,657.4,367,659.9,368.8z"/>
		<path fill="#2CB3CF" d="M668.3,351.9c5.1-0.7,7.7-4.3,7.7-10.9c0-5.4-2.1-9-6.3-10.8V324c4.7,1.7,7.8,4.2,9.3,7.4
			c1.3,2.8,2,6,2,9.7c0,5.5-1.4,9.7-4.1,12.6c-2.6,2.8-6.1,4.2-10.6,4.2c-4.3,0-7.8-1.5-10.7-4.6c-2.8-3.1-4.2-7.3-4.2-12.5
			c0-5.1,1.3-9.2,3.8-12.4c2.5-3.1,5.9-4.7,10.1-4.7h3.1L668.3,351.9z M658.7,332.9c-1.7,1.9-2.5,4.5-2.5,7.9c0,3.4,0.8,6,2.5,8
			c1.3,1.5,2.8,2.5,4.7,2.9v-21.6C661.5,330.5,659.9,331.4,658.7,332.9z"/>
	</g>
	<g>
		<path fill="#2CB3CF" d="M546.5,518.5l-5.6-13.2h-21l-5.7,13.2h-3.4l18.4-42h2.7l17.8,42H546.5z M530.7,481.1l-9.4,21.2h18.5
			L530.7,481.1z"/>
		<path fill="#2CB3CF" d="M558.4,495.4c-1.7,2.9-2.5,6.5-2.5,11v12.1h-3v-30.3h3v5.1c0.6-0.9,1.3-1.8,2.2-2.5
			c2.5-2.2,5.9-3.3,10.1-3.3v2.9C563.7,490.5,560.4,492.1,558.4,495.4z"/>
		<path fill="#2CB3CF" d="M592,516.9c-2.3,1.5-5.1,2.3-8.3,2.3c-4.6,0-8.2-1.4-10.8-4.2c-2.7-2.8-4-6.5-4-11.1
			c0-4.9,1.4-8.8,4.1-11.8c2.7-3,6.5-4.5,11.4-4.5c2.9,0,5.5,0.7,7.6,2.1c2.4,1.6,4,4,4.9,7.3l-2.7,1.4c-1.3-5.3-4.6-7.9-9.9-7.9
			c-3.9,0-7,1.2-9.1,3.7c-2.2,2.5-3.2,5.7-3.2,9.7c0,3.8,1,6.8,3.1,9c2.1,2.2,5,3.3,8.7,3.3c2.6,0,4.9-0.6,6.8-1.9
			c2-1.4,3.4-3.6,3.9-6.8l2.8,1.3C596.3,512.5,594.6,515.2,592,516.9z"/>
		<path fill="#2CB3CF" d="M623.8,518.5v-20.1c0-2.7-0.8-4.8-2.4-6.3c-1.6-1.4-3.8-2.2-6.5-2.2c-3.2,0-5.8,1-7.7,3.1
			c-1.9,2.1-2.8,4.8-2.8,8.1v17.2h-3v-42h3V492c2.2-3.3,5.7-4.9,10.4-4.9c3.4,0,6.2,0.9,8.4,2.7c2.4,1.9,3.5,4.7,3.5,8.2v20.6H623.8
			z"/>
		<path fill="#2CB3CF" d="M632.9,518.5v-30.7h3v30.7H632.9z"/>
	</g>
</g>
<rect x="510.8" y="323.8" fill="#2CB3CF" stroke="#2CB3CF" stroke-width="1.1403" width="133.4" height="153.3"/>
<path fill="#2CB3CF" stroke="#FFFFFF" stroke-width="2.6573" d="M646.7,475.4c0,4-5.6,7.2-12.6,7.2c-6.9,0-12.6-3.2-12.6-7.2
	c0-4,5.6-7.2,12.6-7.2C641.1,468.2,646.7,471.4,646.7,475.4z"/>
<rect x="525.5" y="337.3" fill="#FFFFFF" stroke="#2CB3CF" stroke-width="1.1403" width="12.3" height="19.9"/>
<rect x="565" y="351.4" fill="#FFFFFF" stroke="#2CB3CF" stroke-width="1.2482" width="17.3" height="17"/>
<rect x="544.5" y="383.6" fill="#FFFFFF" stroke="#2CB3CF" stroke-width="1.1403" width="12.3" height="19.9"/>
<rect x="578.5" y="419.3" fill="#FFFFFF" stroke="#2CB3CF" stroke-width="1.6314" width="23.1" height="21.7"/>
<rect x="607.2" y="369.6" fill="#FFFFFF" stroke="#2CB3CF" stroke-width="0.8802" width="10.8" height="13.5"/>
</svg>
