<?xml version="1.0" encoding="utf-8"?>
<!-- Generator: Adobe Illustrator 21.1.0, SVG Export Plug-In . SVG Version: 6.00 Build 0)  -->
<svg version="1.1" id="Calque_1" xmlns="http://www.w3.org/2000/svg" xmlns:xlink="http://www.w3.org/1999/xlink" x="0px" y="0px"
	 viewBox="0 0 250 250" style="enable-background:new 0 0 250 250;" xml:space="preserve">
<style type="text/css">
	.st0{fill:#2CB3CF;}
	.st1{fill:#2CB3CF;stroke:#2CB3CF;stroke-width:1.1403;}
	.st2{fill:#2CB3CF;stroke:#FFFFFF;stroke-width:2.6573;}
	.st3{fill:#FFFFFF;stroke:#2CB3CF;stroke-width:1.1403;}
	.st4{fill:#FFFFFF;stroke:#2CB3CF;stroke-width:1.2482;}
	.st5{fill:#FFFFFF;stroke:#2CB3CF;stroke-width:1.6314;}
	.st6{fill:#FFFFFF;stroke:#2CB3CF;stroke-width:0.8802;}
</style>
<g>
	<g>
		<g>
			<path class="st0" d="M144.1,155.6c1.4,2.7,2.1,6.1,2.1,10v12.5h14.1v5.3h-34.6v-18.4c0-9.8,3.4-14.7,10.4-14.7
				C139.6,150.3,142.3,152.1,144.1,155.6z M130.2,164.7v13.5h11.5v-13.6c0-2.6-0.4-4.8-1.4-6.3c-1.1-1.8-2.4-2.6-4.2-2.6
				C132.1,155.6,130.2,158.6,130.2,164.7z"/>
			<path class="st0" d="M160.3,147.5h-25.9v-5.2h25.9V147.5z"/>
			<path class="st0" d="M159,115.2c1.2,2.4,1.9,5.2,1.9,8.5c0,4.6-1.1,8.3-3.4,11.1c-2.3,2.7-5.4,4.1-9.2,4.1
				c-4.1,0-7.3-1.4-9.8-4.2c-2.5-2.8-3.7-6.7-3.7-11.6c0-3,0.6-5.6,1.8-7.8c1.3-2.6,3.6-4.3,7-5.4l2,4.8c-2.5,0.7-4.1,1.8-5.1,3
				c-1,1.3-1.4,3.1-1.4,5.5c0,3.3,0.8,5.9,2.5,7.8c1.7,1.8,3.9,2.7,6.6,2.7c2.6,0,4.6-0.8,6-2.5c1.5-1.8,2.3-4.2,2.3-7.4
				c0-2.2-0.4-4.1-1.3-5.7s-2.7-2.7-5.7-3.4l1.9-5C155,110.6,157.6,112.4,159,115.2z"/>
			<path class="st0" d="M140.4,98.1h19.9v5.1l-19.9,0.1v5.5H136v-5.5h-7v-5.2h7v-5.6h4.4V98.1z"/>
			<path class="st0" d="M160.4,69.3h-1.8c1.5,2.3,2.2,5.2,2.2,8.5c0,3.7-0.8,6.7-2.4,8.9c-1.7,2.4-4.1,3.6-7.2,3.6h-15.9v-5.2h15.9
				c3.5,0,5.3-2.4,5.3-7.2c0-5.7-2.6-8.5-7.8-8.5h-13.3v-5.2h25L160.4,69.3L160.4,69.3z"/>
			<path class="st0" d="M142.4,51.6c1.9,1.5,4.5,2.2,7.6,2.2h10.2V59h-25v-5.2h2.3c-1.9-2.6-2.8-6.4-2.8-11.6h4.3
				C139.1,46.9,140.2,50,142.4,51.6z"/>
			<path class="st0" d="M149.8,36.7c4.5-0.6,6.8-3.8,6.8-9.6c0-4.8-1.9-7.9-5.6-9.5v-5.5c4.1,1.5,6.9,3.7,8.2,6.5
				c1.1,2.5,1.8,5.3,1.8,8.5c0,4.8-1.2,8.5-3.6,11.1c-2.3,2.5-5.4,3.7-9.3,3.7c-3.8,0-6.9-1.3-9.4-4.1c-2.5-2.7-3.7-6.4-3.7-11
				c0-4.5,1.1-8.1,3.3-10.9c2.2-2.7,5.2-4.1,8.9-4.1h2.7L149.8,36.7z M141.3,20c-1.5,1.7-2.2,4-2.2,7s0.7,5.3,2.2,7.1
				c1.1,1.3,2.5,2.2,4.1,2.6v-19C143.8,17.9,142.4,18.7,141.3,20z"/>
		</g>
		<g>
			<path class="st0" d="M42.5,183.6l-4.9-11.6H19l-5,11.6h-3l16.2-37h2.4l15.7,37H42.5z M28.5,150.6l-8.3,18.7h16.3L28.5,150.6z"/>
			<path class="st0" d="M53,163.2c-1.5,2.6-2.2,5.7-2.2,9.7v10.7h-2.6v-26.7h2.6v4.5c0.5-0.8,1.1-1.6,1.9-2.2
				c2.2-1.9,5.2-2.9,8.9-2.9v2.6C57.6,158.9,54.7,160.3,53,163.2z"/>
			<path class="st0" d="M82.6,182.2c-2,1.3-4.5,2-7.3,2c-4.1,0-7.2-1.2-9.5-3.7c-2.4-2.5-3.5-5.7-3.5-9.8c0-4.3,1.2-7.8,3.6-10.4
				c2.4-2.6,5.7-4,10-4c2.6,0,4.8,0.6,6.7,1.9c2.1,1.4,3.5,3.5,4.3,6.4l-2.4,1.2c-1.1-4.7-4.1-7-8.7-7c-3.4,0-6.2,1.1-8,3.3
				c-1.9,2.2-2.8,5-2.8,8.5c0,3.3,0.9,6,2.7,7.9c1.9,1.9,4.4,2.9,7.7,2.9c2.3,0,4.3-0.5,6-1.7c1.8-1.2,3-3.2,3.4-6l2.5,1.1
				C86.4,178.3,84.9,180.7,82.6,182.2z"/>
			<path class="st0" d="M110.6,183.6v-17.7c0-2.4-0.7-4.2-2.1-5.6c-1.4-1.2-3.3-1.9-5.7-1.9c-2.8,0-5.1,0.9-6.8,2.7
				s-2.5,4.2-2.5,7.1v15.2h-2.6v-37h2.6v13.8c1.9-2.9,5-4.3,9.2-4.3c3,0,5.5,0.8,7.4,2.4c2.1,1.7,3.1,4.1,3.1,7.2v18.2L110.6,183.6
				L110.6,183.6z"/>
			<path class="st0" d="M118.6,183.6v-27.1h2.6v27.1H118.6z"/>
		</g>
	</g>
	<rect x="11" y="12" class="st1" width="117.6" height="135.1"/>
	<path class="st2" d="M130.8,145.6c0,3.5-4.9,6.3-11.1,6.3c-6.1,0-11.1-2.8-11.1-6.3s4.9-6.3,11.1-6.3
		C125.8,139.2,130.8,142.1,130.8,145.6z"/>
	<rect x="24" y="23.9" class="st3" width="10.8" height="17.5"/>
	<rect x="58.8" y="36.3" class="st4" width="15.2" height="15"/>
	<rect x="40.7" y="64.7" class="st3" width="10.8" height="17.5"/>
	<rect x="70.7" y="96.1" class="st5" width="20.4" height="19.1"/>
	<rect x="96" y="52.3" class="st6" width="9.5" height="11.9"/>
</g>
</svg>
